<svg width="80" height="70" viewBox="0 0 80 70" xmlns="http://www.w3.org/2000/svg">
	<path d="M13.0626 66.9932L76.7022 3.3536M36.7506 3L76.7506 3M76.5944 44.0583L76.5944 4.0583" fill="none" fill-rule="evenodd" stroke="#64CCC5" stroke-width="3" stroke-linecap="round" />
	<path d="M48.2068 11.383C47.6468 11.615 47.1065 11.9912 46.5861 12.5116C46.0827 13.0151 45.7291 13.527 45.5255 14.0474C45.3218 14.5679 45.2624 15.0628 45.3473 15.5324C45.4265 15.9962 45.6414 16.4035 45.9921 16.7542C46.3033 17.0654 46.6342 17.2549 46.9849 17.3227C47.33 17.385 47.6864 17.3567 48.0541 17.2379C48.4218 17.1078 48.8008 16.9211 49.1911 16.6779L50.4554 15.8718C50.7496 15.6907 50.9815 15.6002 51.1512 15.6002C51.3152 15.5946 51.4567 15.6511 51.5755 15.7699C51.6829 15.8774 51.7452 16.0019 51.7621 16.1433C51.7791 16.2847 51.7395 16.4431 51.6433 16.6185C51.5528 16.7882 51.4086 16.972 51.2106 17.17C50.956 17.4246 50.6675 17.6395 50.3451 17.8149C50.0283 17.9846 49.703 18.1119 49.3693 18.1967C49.0355 18.2703 48.7159 18.2957 48.4104 18.2731L48.682 19.9532C49.0666 19.9645 49.4711 19.9108 49.8954 19.792C50.3196 19.6732 50.7439 19.4865 51.1682 19.2319C51.5868 18.9717 51.9827 18.6549 52.3561 18.2816C52.8143 17.8234 53.1537 17.3482 53.3743 16.8561C53.5893 16.3583 53.6628 15.8718 53.595 15.3966C53.5214 14.9158 53.2867 14.4773 52.8907 14.0814C52.4777 13.6684 52.0167 13.4676 51.5076 13.4789C50.9985 13.4902 50.3988 13.7108 49.7087 14.1408L48.5547 14.8705C48.2492 15.0628 48.0003 15.176 47.808 15.2099C47.6157 15.2325 47.4601 15.1845 47.3413 15.0657C47.2395 14.9638 47.1773 14.845 47.1546 14.7093C47.132 14.5735 47.1631 14.418 47.248 14.2426C47.3328 14.0672 47.4799 13.8749 47.6892 13.6656C48.0456 13.3092 48.4274 13.0575 48.8347 12.9104C49.242 12.752 49.6946 12.6785 50.1924 12.6898L49.9548 11.0436C49.3495 11.0267 48.7668 11.1398 48.2068 11.383ZM43.8551 15.4123L44.229 19.5863L49.5572 20.9108L47.9026 22.5654L44.1064 21.5503L44.2536 23.0572L45.8322 24.6358L44.3727 26.0953L38.7724 20.495L40.2319 19.0355L42.7163 21.5199L42.2344 17.033L43.8551 15.4123ZM37.6231 22.5947C36.9386 22.6456 36.2626 23.0048 35.5951 23.6723L32.9222 26.3452L38.5225 31.9455L39.9565 30.5115L37.9116 28.4665L38.7861 27.5919L42.0269 28.441L43.6391 26.8288L39.9192 26.0268C40.0667 25.7313 40.1555 25.4358 40.1856 25.1403C40.2535 24.4728 40.0018 23.8533 39.4304 23.282C38.91 22.7616 38.3075 22.5325 37.6231 22.5947ZM37.9116 26.3961C38.1944 26.1133 38.35 25.8446 38.3783 25.59C38.4065 25.3354 38.2962 25.0837 38.0473 24.8348C37.8041 24.5916 37.5552 24.4841 37.3006 24.5124C37.0461 24.5406 36.7774 24.6962 36.4945 24.9791L35.4593 26.0143L36.8764 27.4313L37.9116 26.3961ZM30.9001 28.8934C30.2609 29.0687 29.6585 29.4392 29.0928 30.0049C28.5271 30.5706 28.1537 31.1759 27.9727 31.8208C27.786 32.46 27.7974 33.1049 28.0067 33.7554C28.216 34.406 28.6233 35.0339 29.2285 35.6392C29.8338 36.2444 30.4617 36.6517 31.1123 36.861C31.7628 37.0703 32.4105 37.0845 33.0554 36.9035C33.6946 36.7168 34.2971 36.3406 34.8628 35.7749C35.4285 35.2092 35.8018 34.6096 35.9828 33.976C36.1638 33.3312 36.1497 32.6834 35.9404 32.0329C35.7311 31.3824 35.3238 30.7545 34.7185 30.1492C34.1132 29.5439 33.4853 29.1366 32.8348 28.9273C32.1842 28.718 31.5394 28.7067 30.9001 28.8934ZM30.2383 31.1504C29.9668 31.422 29.8027 31.7161 29.7461 32.0329C29.6896 32.3497 29.7433 32.6863 29.9074 33.0427C30.0658 33.3934 30.3373 33.7611 30.7219 34.1457C31.101 34.5248 31.4687 34.7963 31.825 34.9603C32.1814 35.1244 32.518 35.1781 32.8348 35.1216C33.1516 35.065 33.4457 34.9009 33.7173 34.6294C33.9888 34.3579 34.15 34.0665 34.2009 33.7554C34.2575 33.4386 34.2037 33.1021 34.0397 32.7457C33.8756 32.3893 33.6041 32.0216 33.2251 31.6426C32.8404 31.2579 32.4727 30.9864 32.122 30.828C31.7656 30.664 31.4291 30.6102 31.1123 30.6668C30.8011 30.7177 30.5098 30.8789 30.2383 31.1504ZM25.0078 45.4602L17.7953 41.4721L19.3481 39.9193L24.7193 43.3898L21.2997 37.9677L22.6234 36.644L28.0625 40.0296L24.5835 34.6839L26.0854 33.182L30.065 40.403L28.4783 41.9897L25.1011 39.9363L23.4804 38.8247L23.4635 38.8417L24.5835 40.4539L26.6454 43.8225L25.0078 45.4602ZM17.1718 49.2063L15.5935 43.6739L14.1086 45.1588L14.8553 47.4838L15.3644 48.8415L14.0152 48.3239L11.6903 47.5771L10.1799 49.0875L15.7123 50.6658L17.7572 52.7107L19.2167 51.2513L17.1718 49.2063ZM15.083 55.3849L9.4828 49.7846L7.4887 51.7787L9.4743 55.5122L10.3313 57.0141L10.3143 57.0311L8.8124 56.1571L5.0789 54.1885L3 56.2674L8.6003 61.8677L9.8985 60.5694L7.3275 57.9984L5.5626 56.3183L5.5795 56.3013L11.2562 59.2118L12.4356 58.0323L9.5252 52.3557L9.5422 52.3387L11.2222 54.1037L13.7933 56.6747L15.083 55.3849Z" fill="#176B87" fill-rule="evenodd" stroke="none" />
</svg>