<svg width="70" height="80" viewBox="0 0 70 80" xmlns="http://www.w3.org/2000/svg">
  	<g transform="translate(3 2)">
      	<path d="M54.0332 4.17396L53.6593 0L52.0386 1.6207L52.5205 6.10758L50.0361 3.6232L48.5766 5.0827L54.1769 10.683L55.6364 9.2235L54.0578 7.64489L53.9106 6.13804L57.7068 7.1531L59.3614 5.4985L54.0332 4.17396ZM49.4034 13.1994L52.2121 10.3908L53.3406 11.5193L49.0725 15.7874L43.4722 10.1871L44.9317 8.7277L49.4034 13.1994ZM46.9193 17.9406L48.4212 16.4387L40.8608 12.7985L39.1128 14.5465L42.7445 22.1154L44.2125 20.6474L43.347 18.9843L45.2647 17.0666L46.9193 17.9406ZM44.0004 16.3454L42.6257 17.72L41.0475 14.7671L44.0004 16.3454ZM37.5998 16.0595L38.7284 17.1881L36.904 19.0124L41.3758 23.4842L39.9163 24.9436L35.4446 20.4719L33.6117 22.3047L32.4832 21.1762L37.5998 16.0595ZM28.8677 25.1141C28.3077 25.346 27.7675 25.7222 27.247 26.2426C26.7436 26.7461 26.39 27.258 26.1864 27.7785C25.9827 28.2989 25.9233 28.7939 26.0082 29.2634C26.0874 29.7272 26.3023 30.1345 26.6531 30.4853C26.9642 30.7964 27.2951 30.9859 27.6458 31.0538C27.9909 31.116 28.3473 31.0877 28.715 30.9689C29.0827 30.8388 29.4617 30.6521 29.852 30.4089L31.1163 29.6028C31.4105 29.4218 31.6424 29.3313 31.8121 29.3313C31.9762 29.3256 32.1176 29.3822 32.2364 29.501C32.3439 29.6084 32.4061 29.7329 32.4231 29.8743C32.44 30.0157 32.4004 30.1741 32.3043 30.3495C32.2138 30.5192 32.0695 30.703 31.8715 30.901C31.617 31.1556 31.3285 31.3706 31.006 31.5459C30.6892 31.7156 30.364 31.8429 30.0302 31.9278C29.6965 32.0013 29.3768 32.0267 29.0714 32.0041L29.3429 33.6842C29.7276 33.6955 30.132 33.6418 30.5563 33.523C30.9806 33.4042 31.4048 33.2175 31.8291 32.963C32.2477 32.7027 32.6437 32.386 33.017 32.0126C33.4752 31.5544 33.8146 31.0792 34.0353 30.5871C34.2502 30.0893 34.3238 29.6028 34.2559 29.1276C34.1823 28.6468 33.9476 28.2084 33.5516 27.8124C33.1387 27.3994 32.6776 27.1986 32.1685 27.2099C31.6594 27.2212 31.0598 27.4419 30.3696 27.8718L29.2156 28.6015C28.9102 28.7939 28.6613 28.907 28.4689 28.9409C28.2766 28.9636 28.121 28.9155 28.0022 28.7967C27.9004 28.6949 27.8382 28.5761 27.8156 28.4403C27.7929 28.3045 27.824 28.149 27.9089 27.9736C27.9937 27.7982 28.1408 27.6059 28.3501 27.3966C28.7065 27.0402 29.0883 26.7885 29.4956 26.6414C29.9029 26.483 30.3555 26.4095 30.8533 26.4208L30.6157 24.7747C30.0104 24.7577 29.4278 24.8708 28.8677 25.1141ZM23.0887 30.0615C23.298 29.8522 23.5186 29.7278 23.7506 29.6882C23.9825 29.6486 24.2088 29.6769 24.4294 29.773C24.65 29.8579 24.8565 29.9965 25.0488 30.1888C25.3034 30.4434 25.4929 30.746 25.6173 31.0967C25.7418 31.4361 25.804 31.7869 25.804 32.1489C25.804 32.4996 25.7446 32.8249 25.6258 33.1247L24.6076 33.2774C24.7038 33.0568 24.7688 32.8334 24.8027 32.6071C24.8423 32.3752 24.8537 32.1546 24.8367 31.9453C24.8254 31.7303 24.7858 31.538 24.7179 31.3683L24.65 31.3852C24.6444 31.4361 24.6246 31.4899 24.5906 31.5464C24.5567 31.603 24.5029 31.6681 24.4294 31.7416C24.3276 31.8434 24.1975 31.9226 24.0391 31.9792C23.8863 32.0301 23.7223 32.0414 23.5469 32.0131C23.3772 31.9792 23.2132 31.883 23.0548 31.7246C22.8738 31.5436 22.7635 31.3541 22.7239 31.1561C22.6843 30.9581 22.6984 30.763 22.7663 30.5706C22.8342 30.3783 22.9416 30.2086 23.0887 30.0615ZM22.9345 32.982L21.8059 31.8534L16.6893 36.9701L17.8178 38.0986L19.6507 36.2658L24.1224 40.7375L25.5819 39.2781L21.1101 34.8063L22.9345 32.982ZM17.3439 47.5161L11.7436 41.9158L16.105 37.5544L17.2335 38.6829L14.3316 41.5849L15.4686 42.7219L17.7766 40.4139L18.8373 41.4746L16.5293 43.7826L17.6748 44.9281L20.6871 41.9158L21.8156 43.0443L17.3439 47.5161ZM15.379 47.2239L12.5704 50.0325L8.0986 45.5607L6.6391 47.0202L12.2394 52.6205L16.5075 48.3524L15.379 47.2239Z" fill="#176B87" fill-rule="evenodd" stroke="none" />
      	<path d="M63.6885 11.0513L0.0489006 74.6906M0.1562 33.9861L0.1562 73.9866M40 75.0446L0 75.0446" fill="none" fill-rule="evenodd" stroke="#64CCC5" stroke-width="3" stroke-linecap="round" />
	</g>
</svg>