<svg width="40" height="33" viewBox="0 0 40 33" fill="none" xmlns="http://www.w3.org/2000/svg">
<path d="M10.018 32.84C8.14067 32.84 6.60467 32.456 5.41 31.688C4.21533 30.92 3.234 29.9387 2.466 28.744C1.61267 27.2933 1.01533 25.8 0.674 24.264C0.418 22.6427 0.29 21.32 0.29 20.296C0.29 16.1147 1.35667 12.3173 3.49 8.904C5.62333 5.49066 8.95133 2.71733 13.474 0.583992L14.626 2.88799C11.9807 3.99733 9.67667 5.74666 7.714 8.13599C5.83667 10.5253 4.898 12.9573 4.898 15.432C4.898 16.456 5.026 17.352 5.282 18.12C6.64733 17.0107 8.226 16.456 10.018 16.456C12.2367 16.456 14.1567 17.1813 15.778 18.632C17.3993 20.0827 18.21 22.088 18.21 24.648C18.21 27.0373 17.3993 29 15.778 30.536C14.1567 32.072 12.2367 32.84 10.018 32.84ZM31.778 32.84C29.9007 32.84 28.3647 32.456 27.17 31.688C25.9753 30.92 24.994 29.9387 24.226 28.744C23.3727 27.2933 22.7753 25.8 22.434 24.264C22.178 22.6427 22.05 21.32 22.05 20.296C22.05 16.1147 23.1167 12.3173 25.25 8.904C27.3833 5.49066 30.7113 2.71733 35.234 0.583992L36.386 2.88799C33.7407 3.99733 31.4367 5.74666 29.474 8.13599C27.5967 10.5253 26.658 12.9573 26.658 15.432C26.658 16.456 26.786 17.352 27.042 18.12C28.4073 17.0107 29.986 16.456 31.778 16.456C33.9967 16.456 35.9167 17.1813 37.538 18.632C39.1593 20.0827 39.97 22.088 39.97 24.648C39.97 27.0373 39.1593 29 37.538 30.536C35.9167 32.072 33.9967 32.84 31.778 32.84Z" fill="black" fill-opacity="0.15"/>
</svg>
