<svg width="120" height="120" viewBox="0 0 120 120" fill="none" xmlns="http://www.w3.org/2000/svg">
    <path d="M60.7071 39.2929C60.3166 38.9024 59.6834 38.9024 59.2929 39.2929L52.9289 45.6569C52.5384 46.0474 52.5384 46.6805 52.9289 47.0711C53.3195 47.4616 53.9526 47.4616 54.3431 47.0711L60 41.4142L65.6569 47.0711C66.0474 47.4616 66.6805 47.4616 67.0711 47.0711C67.4616 46.6805 67.4616 46.0474 67.0711 45.6569L60.7071 39.2929ZM61 80L61 40H59L59 80H61Z" fill="#04364A"/>
    <g>
        <path d="M12.4361 73.689C12.5928 73.4752 12.9194 73.6675 12.8161 73.9128L11.9501 75.9708C10.8318 78.6282 11.6442 81.7211 13.9152 83.452L15.6739 84.7925C15.8836 84.9524 15.695 85.2855 15.4545 85.1802L13.4371 84.2968C10.832 83.156 7.80006 83.9847 6.10319 86.3014L4.78907 88.0954C4.63238 88.3093 4.3058 88.117 4.40903 87.8716L5.27509 85.8136C6.39339 83.1563 5.58097 80.0634 3.30996 78.3324L1.55121 76.9919C1.34158 76.8321 1.53013 76.4989 1.77063 76.6042L3.78806 77.4877C6.39311 78.6285 9.4251 77.7997 11.122 75.4831L12.4361 73.689Z" fill="#5AB8B1"/>
        <path d="M116.165 30.7051C116.322 30.4913 116.648 30.6836 116.545 30.929L115.679 32.9869C114.561 35.6443 115.373 38.7372 117.644 40.4681L119.403 41.8087C119.612 41.9685 119.424 42.3016 119.183 42.1963L117.166 41.3129C114.561 40.1721 111.529 41.0009 109.832 43.3175L108.518 45.1115C108.361 45.3254 108.035 45.1331 108.138 44.8877L109.004 42.8298C110.122 40.1724 109.31 37.0795 107.039 35.3485L105.28 34.008C105.07 33.8482 105.259 33.5151 105.499 33.6203L107.517 34.5038C110.122 35.6446 113.154 34.8158 114.851 32.4992L116.165 30.7051Z" fill="#5AB8B1"/>
        <path d="M120 60.0767C120 60.9573 119.851 61.7303 119.554 62.3957C119.257 63.0611 118.815 63.6286 118.23 64.0983L116.95 62.9681C117.448 62.567 117.813 62.1266 118.043 61.6472C118.283 61.1775 118.403 60.6295 118.403 60.0033C118.403 59.5923 118.35 59.2498 118.245 58.9758C118.139 58.7117 118 58.516 117.827 58.3887C117.655 58.2713 117.463 58.2126 117.252 58.2126C116.993 58.2126 116.772 58.3154 116.59 58.5208C116.417 58.7263 116.273 59.0786 116.158 59.5776L115.755 61.383C115.544 62.3419 115.228 63.0268 114.806 63.4378C114.393 63.8586 113.856 64.069 113.194 64.069C112.571 64.069 112.034 63.9026 111.583 63.5699C111.141 63.2372 110.801 62.7724 110.561 62.1756C110.331 61.5787 110.216 60.8937 110.216 60.1207C110.216 59.4455 110.293 58.8242 110.446 58.2566C110.609 57.6989 110.83 57.1999 111.108 56.7595C111.386 56.3192 111.707 55.9523 112.072 55.6587L113.41 56.8036C113.103 57.0286 112.83 57.3075 112.59 57.6402C112.35 57.9729 112.158 58.3496 112.014 58.7704C111.88 59.2009 111.813 59.651 111.813 60.1207C111.813 60.5219 111.856 60.8595 111.942 61.1334C112.038 61.4172 112.168 61.6276 112.331 61.7646C112.504 61.9114 112.71 61.9847 112.95 61.9847C113.199 61.9847 113.41 61.8967 113.583 61.7205C113.765 61.5542 113.904 61.2411 114 60.7812L114.432 58.8144C114.566 58.2469 114.739 57.7576 114.95 57.3466C115.17 56.9455 115.448 56.6372 115.784 56.422C116.129 56.2165 116.537 56.1137 117.007 56.1137C117.573 56.1137 118.082 56.2703 118.532 56.5834C118.983 56.8965 119.338 57.3466 119.597 57.9337C119.866 58.5306 120 59.2449 120 60.0767Z" fill="#04364A"/>
        <path d="M110.02 78.3779C109.474 78.0362 109.053 77.6172 108.756 77.1208C108.46 76.6244 108.283 76.0849 108.228 75.5024C108.172 74.92 108.228 74.3121 108.394 73.6789C108.637 72.7526 109.038 72.0011 109.597 71.4244C110.153 70.8572 110.832 70.4855 111.633 70.3094C112.431 70.1427 113.322 70.1936 114.304 70.462C115.286 70.7305 116.082 71.1405 116.692 71.6922C117.299 72.2532 117.705 72.9212 117.908 73.6961C118.109 74.4805 118.091 75.3263 117.852 76.2337C117.684 76.8764 117.443 77.4336 117.13 77.9053C116.827 78.3796 116.452 78.7482 116.006 79.0111C115.557 79.2835 115.041 79.4313 114.459 79.4545L114.188 77.481C114.786 77.4723 115.244 77.3342 115.563 77.0667C115.891 76.8017 116.123 76.4093 116.259 75.8895C116.394 75.3791 116.391 74.8972 116.252 74.4439C116.11 74 115.831 73.6095 115.413 73.2724C115.004 72.9378 114.457 72.6768 113.771 72.4894C113.095 72.3045 112.496 72.242 111.973 72.3019C111.449 72.3712 111.016 72.562 110.676 72.8742C110.336 73.1864 110.094 73.6166 109.95 74.1648C109.816 74.6752 109.835 75.1514 110.006 75.5935C110.176 76.045 110.514 76.4211 111.021 76.7217L110.02 78.3779Z" fill="#04364A"/>
        <path d="M111.57 91.0016C111.032 91.9507 110.386 92.5643 109.63 92.8424C108.875 93.1206 108.119 93.037 107.363 92.5918C106.557 92.1172 106.092 91.4816 105.967 90.6848C105.85 89.893 106.058 89.0267 106.591 88.0861L106.592 87.8494L107.613 86.0445L104.461 84.1877L105.439 82.459L113.663 87.3026L111.57 91.0016ZM107.922 88.5819C107.643 89.0734 107.533 89.494 107.589 89.8438C107.65 90.207 107.883 90.5084 108.29 90.7482C108.697 90.9879 109.066 91.0412 109.396 90.9079C109.73 90.7881 110.036 90.4824 110.314 89.9909L111.314 88.2241L108.922 86.815L107.922 88.5819ZM106.977 89.3986L101.338 89.7044L102.453 87.7342L107.328 87.6052L106.977 89.3986Z" fill="#04364A"/>
        <path d="M102.205 103.504C101.54 104.182 100.828 104.625 100.069 104.833C99.3089 105.04 98.5425 105.013 97.7692 104.75C96.9892 104.494 96.2397 103.999 95.5207 103.266C94.8018 102.532 94.3168 101.768 94.0658 100.972C93.8081 100.183 93.781 99.4014 93.9844 98.6265C94.1879 97.8516 94.622 97.1251 95.2867 96.447C95.9514 95.7689 96.667 95.3226 97.4335 95.1082C98.1932 94.9006 98.963 94.9248 99.743 95.1808C100.516 95.4437 101.262 95.9419 101.981 96.6753C102.7 97.4087 103.189 98.1698 103.446 98.9586C103.697 99.7543 103.721 100.54 103.518 101.315C103.307 102.096 102.87 102.826 102.205 103.504ZM101.056 102.332C101.435 101.944 101.669 101.526 101.758 101.076C101.846 100.626 101.788 100.152 101.585 99.654C101.381 99.1696 101.028 98.6715 100.526 98.1595C100.031 97.6544 99.5429 97.2946 99.0614 97.0801C98.573 96.8725 98.1084 96.8137 97.6675 96.9036C97.2266 96.9936 96.8163 97.2323 96.4364 97.6198C96.0634 98.0003 95.8327 98.4155 95.7446 98.8652C95.6564 99.3149 95.7174 99.7854 95.9277 100.277C96.1312 100.775 96.4805 101.276 96.9757 101.782C97.4776 102.294 97.9693 102.65 98.4509 102.851C98.9325 103.065 99.3937 103.127 99.8346 103.037C100.275 102.947 100.682 102.712 101.056 102.332Z" fill="#04364A"/>
        <path d="M86.6628 105.497L82.3265 108.051L81.5279 106.64L87.5839 103.073L92.3321 111.462L90.6125 112.475L86.6628 105.497Z" fill="#04364A"/>
        <path d="M74.211 110.986L69.3744 112.308L68.9611 110.734L75.7156 108.888L78.1735 118.245L76.2555 118.769L74.211 110.986Z" fill="#04364A"/>
        <path d="M40.1723 117.793L40.5856 116.219L43.6571 117.059L45.7016 109.275L47.6196 109.8L45.5751 117.583L48.6605 118.426L48.2471 120L40.1723 117.793Z" fill="#04364A"/>
        <path d="M29.729 112.846C28.9149 112.366 28.3112 111.779 27.918 111.084C27.5249 110.39 27.3527 109.627 27.4015 108.797C27.4421 107.962 27.7165 107.096 28.2249 106.198C28.7333 105.299 29.3318 104.624 30.0202 104.17C30.7004 103.712 31.4337 103.483 32.2202 103.483C33.0067 103.483 33.8069 103.723 34.621 104.202C35.4351 104.682 36.0429 105.271 36.4444 105.971C36.8376 106.666 37.0139 107.431 36.9734 108.265C36.9245 109.095 36.6459 109.959 36.1375 110.858C35.6291 111.756 35.0348 112.434 34.3547 112.892C33.6662 113.345 32.9287 113.572 32.1423 113.572C31.3475 113.567 30.5431 113.325 29.729 112.846ZM30.5419 111.409C31.0071 111.683 31.464 111.806 31.9127 111.776C32.3614 111.747 32.7953 111.567 33.2143 111.238C33.6203 110.912 34.0007 110.435 34.3556 109.808C34.7058 109.19 34.92 108.615 34.9985 108.085C35.0687 107.55 35.0041 107.077 34.8048 106.666C34.6055 106.255 34.2733 105.913 33.8081 105.639C33.3512 105.369 32.8984 105.25 32.4497 105.279C32.001 105.309 31.5713 105.491 31.1606 105.825C30.7415 106.154 30.3569 106.628 30.0068 107.247C29.6519 107.874 29.4418 108.451 29.3764 108.977C29.298 109.507 29.3584 109.978 29.5576 110.389C29.7569 110.8 30.085 111.14 30.5419 111.409Z" fill="#04364A"/>
        <path d="M17.2709 102.762C16.7554 102.236 16.4027 101.697 16.2128 101.143C16.0161 100.597 15.9822 100.057 16.111 99.5241C16.2263 98.9914 16.5112 98.4932 16.9657 98.0296C17.4201 97.5661 17.9119 97.272 18.4409 97.1475C18.9564 97.0229 19.4855 97.0575 20.0281 97.2512C20.5639 97.4519 21.0896 97.8151 21.6051 98.341L23.0193 99.7836L25.4001 97.355L26.8041 98.7873L20.0892 105.637L17.2709 102.762ZM20.7098 99.6902C20.2892 99.2612 19.8857 99.0294 19.499 98.9948C19.1056 98.9672 18.736 99.1298 18.3901 99.4826C18.0374 99.8424 17.878 100.22 17.9119 100.614C17.9458 101.008 18.173 101.42 18.5935 101.849L19.7941 103.074L21.9103 100.915L20.7098 99.6902Z" fill="#04364A"/>
        <path d="M0 59.9234C-3.77364e-08 59.0427 0.148681 58.2697 0.446042 57.6043C0.743405 56.9389 1.18465 56.3714 1.76978 55.9017L3.05036 57.0319C2.55156 57.4331 2.18705 57.8734 1.95683 58.3529C1.71703 58.8225 1.59712 59.3705 1.59712 59.9967C1.59712 60.4077 1.64988 60.7502 1.7554 61.0242C1.86091 61.2884 2 61.4841 2.17266 61.6113C2.34532 61.7287 2.53717 61.7874 2.7482 61.7874C3.00719 61.7874 3.22782 61.6847 3.41007 61.4792C3.58273 61.2737 3.72662 60.9214 3.84173 60.4224L4.2446 58.6171C4.45564 57.6581 4.77218 56.9732 5.19424 56.5622C5.60671 56.1414 6.14388 55.9311 6.80575 55.9311C7.42926 55.9311 7.96643 56.0974 8.41727 56.4301C8.85851 56.7628 9.19904 57.2276 9.43885 57.8245C9.66906 58.4214 9.78417 59.1063 9.78417 59.8793C9.78417 60.5545 9.70743 61.1758 9.55396 61.7434C9.39089 62.3011 9.17026 62.8002 8.89209 63.2405C8.61391 63.6808 8.29257 64.0477 7.92806 64.3413L6.58993 63.1964C6.89688 62.9714 7.17026 62.6925 7.41007 62.3598C7.64988 62.0271 7.84173 61.6504 7.98561 61.2297C8.1199 60.7991 8.18705 60.349 8.18705 59.8793C8.18705 59.4781 8.14388 59.1406 8.05755 58.8666C7.96163 58.5828 7.83213 58.3724 7.66906 58.2354C7.4964 58.0887 7.29017 58.0153 7.05036 58.0153C6.80096 58.0153 6.58993 58.1033 6.41727 58.2795C6.23501 58.4458 6.09592 58.7589 6 59.2188L5.56834 61.1856C5.43405 61.7531 5.26139 62.2424 5.05036 62.6534C4.82974 63.0546 4.55156 63.3628 4.21583 63.5781C3.8705 63.7835 3.46283 63.8863 2.99281 63.8863C2.42686 63.8863 1.91847 63.7297 1.46763 63.4166C1.01679 63.1035 0.661871 62.6534 0.402878 62.0663C0.134293 61.4694 3.564e-08 60.7551 0 59.9234Z" fill="#04364A"/>
        <path d="M9.98015 41.6221C10.526 41.9638 10.9472 42.3828 11.2438 42.8792C11.5404 43.3757 11.7165 43.9151 11.7721 44.4976C11.8276 45.08 11.7722 45.6879 11.6059 46.3212C11.3626 47.2474 10.9616 47.9989 10.403 48.5756C9.84682 49.1428 9.16825 49.5145 8.36724 49.6906C7.56873 49.8573 6.6784 49.8064 5.69626 49.538C4.71412 49.2695 3.91813 48.8595 3.30829 48.3078C2.70094 47.7468 2.29546 47.0788 2.09185 46.3039C1.89071 45.5195 1.90932 44.6737 2.14765 43.7663C2.31648 43.1236 2.55718 42.5664 2.86977 42.0947C3.1731 41.6204 3.54798 41.2518 3.99441 40.9889C4.44332 40.7165 4.95882 40.5687 5.5409 40.5455L5.81201 42.519C5.21387 42.5277 4.75554 42.6658 4.43701 42.9333C4.10921 43.1983 3.87704 43.5907 3.7405 44.1105C3.60643 44.6209 3.60895 45.1028 3.74807 45.5561C3.88966 46.0001 4.16942 46.3906 4.58734 46.7277C4.996 47.0622 5.54315 47.3232 6.22879 47.5106C6.90517 47.6955 7.50446 47.758 8.02665 47.6981C8.55133 47.6288 8.98377 47.438 9.32398 47.1258C9.66419 46.8136 9.90629 46.3834 10.0503 45.8352C10.1843 45.3248 10.1654 44.8486 9.99357 44.4065C9.82418 43.955 9.48601 43.5789 8.97907 43.2783L9.98015 41.6221Z" fill="#04364A"/>
        <path d="M8.43044 28.9985C8.96761 28.0494 9.61396 27.4357 10.3695 27.1576C11.125 26.8795 11.8808 26.963 12.6368 27.4082C13.4426 27.8828 13.908 28.5184 14.033 29.3152C14.1497 30.1071 13.9419 30.9733 13.4095 31.9139L13.4085 32.1506L12.3869 33.9556L15.5395 35.8123L14.561 37.541L6.33691 32.6974L8.43044 28.9985ZM12.0785 31.4181C12.3567 30.9266 12.4674 30.506 12.4106 30.1562C12.3503 29.793 12.1166 29.4916 11.7096 29.2518C11.3025 29.0121 10.9339 28.9589 10.6038 29.0921C10.2701 29.2119 9.96419 29.5176 9.68602 30.0091L8.68602 31.7759L11.0785 33.185L12.0785 31.4181ZM13.0226 30.6014L18.6618 30.2956L17.5466 32.2659L12.6721 32.3948L13.0226 30.6014Z" fill="#04364A"/>
        <path d="M17.7948 16.4956C18.4595 15.8175 19.1717 15.3747 19.9314 15.1671C20.6911 14.9596 21.4575 14.9872 22.2308 15.2502C23.0108 15.5062 23.7603 16.0009 24.4793 16.7343C25.1982 17.4677 25.6832 18.2323 25.9342 19.028C26.1919 19.8167 26.219 20.5986 26.0156 21.3735C25.8121 22.1485 25.378 22.875 24.7133 23.553C24.0485 24.2311 23.333 24.6774 22.5665 24.8919C21.8068 25.0994 21.037 25.0752 20.257 24.8192C19.4837 24.5563 18.7376 24.0581 18.0186 23.3247C17.2997 22.5913 16.8113 21.8302 16.5536 21.0414C16.3026 20.2457 16.2789 19.4604 16.4823 18.6855C16.6926 17.9036 17.1301 17.1737 17.7948 16.4956ZM18.9445 17.6684C18.5647 18.0558 18.3306 18.4744 18.2425 18.9242C18.1543 19.3739 18.212 19.8479 18.4154 20.346C18.6189 20.8304 18.9716 21.3285 19.4736 21.8406C19.9687 22.3456 20.4571 22.7054 20.9386 22.9199C21.427 23.1275 21.8916 23.1863 22.3325 23.0964C22.7734 23.0064 23.1837 22.7677 23.5636 22.3802C23.9366 21.9997 24.1672 21.5846 24.2554 21.1348C24.3436 20.6851 24.2826 20.2146 24.0723 19.7233C23.8688 19.2252 23.5195 18.7235 23.0243 18.2184C22.5224 17.7064 22.0307 17.3501 21.5491 17.1494C21.0675 16.9349 20.6063 16.8727 20.1654 16.9626C19.7245 17.0526 19.3175 17.2878 18.9445 17.6684Z" fill="#04364A"/>
        <path d="M33.3372 14.5034L37.6735 11.9495L38.4721 13.3604L32.4161 16.927L27.6679 8.53771L29.3875 7.52496L33.3372 14.5034Z" fill="#04364A"/>
        <path d="M45.789 9.01409L50.6256 7.69209L51.0389 9.26579L44.2844 11.112L41.8265 1.75493L43.7445 1.23069L45.789 9.01409Z" fill="#04364A"/>
        <path d="M79.8277 2.20712L79.4144 3.78081L76.3429 2.94127L74.2984 10.7247L72.3804 10.2004L74.4249 2.41703L71.3395 1.57369L71.7529 0L79.8277 2.20712Z" fill="#04364A"/>
        <path d="M90.271 7.15428C91.0851 7.63375 91.6888 8.22088 92.0819 8.91569C92.4751 9.61049 92.6473 10.3729 92.5985 11.2028C92.5579 12.0377 92.2835 12.9042 91.7751 13.8024C91.2667 14.7007 90.6682 15.3764 89.9797 15.8297C89.2996 16.2878 88.5662 16.5169 87.7798 16.5169C86.9933 16.517 86.1931 16.2773 85.379 15.7978C84.5648 15.3184 83.9571 14.7288 83.5556 14.0291C83.1624 13.3343 82.9861 12.5695 83.0266 11.7346C83.0755 10.9047 83.3541 10.0406 83.8625 9.14233C84.3709 8.24408 84.9651 7.5659 85.6453 7.10778C86.3338 6.65456 87.0713 6.42792 87.8577 6.42785C88.6525 6.43267 89.4569 6.67482 90.271 7.15428ZM89.4581 8.59064C88.9929 8.31666 88.5359 8.19443 88.0873 8.22394C87.6386 8.25346 87.2047 8.43294 86.7857 8.76237C86.3797 9.08823 85.9993 9.5647 85.6444 10.1918C85.2942 10.8104 85.0799 11.3847 85.0015 11.9147C84.9313 12.4497 84.9959 12.9227 85.1952 13.3338C85.3945 13.7449 85.7267 14.0875 86.1919 14.3615C86.6488 14.6306 87.1016 14.7504 87.5503 14.7208C87.999 14.6913 88.4287 14.5094 88.8394 14.1751C89.2585 13.8456 89.6431 13.3716 89.9932 12.753C90.3481 12.1259 90.5582 11.5492 90.6236 11.0227C90.702 10.4927 90.6416 10.0221 90.4424 9.61097C90.2431 9.19984 89.915 8.85973 89.4581 8.59064Z" fill="#04364A"/>
        <path d="M102.729 17.2377C103.245 17.7636 103.597 18.3033 103.787 18.8568C103.984 19.4034 104.018 19.9431 103.889 20.4759C103.774 21.0086 103.489 21.5068 103.034 21.9704C102.58 22.434 102.088 22.728 101.559 22.8526C101.044 22.9771 100.515 22.9425 99.9719 22.7488C99.436 22.5481 98.9104 22.1849 98.3949 21.659L96.9807 20.2164L94.5999 22.645L93.1959 21.2127L99.9108 14.3629L102.729 17.2377ZM99.2902 20.3098C99.7107 20.7388 100.114 20.9706 100.501 21.0052C100.894 21.0329 101.264 20.8703 101.61 20.5174C101.963 20.1576 102.122 19.7805 102.088 19.3861C102.054 18.9917 101.827 18.58 101.406 18.1511L100.206 16.9264L98.0897 19.0851L99.2902 20.3098Z" fill="#04364A"/>
        <animateTransform
            attributeName="transform"
            attributeType="XML"
            type="rotate"
            from="0 60 60"
            to="360 60 60"
            dur="20s"
            repeatCount="indefinite" 
        />
    </g>
</svg>
