<svg width="120" height="120" viewBox="0 0 120 120" fill="none" xmlns="http://www.w3.org/2000/svg">
    <path d="M59.2929 80.7071C59.6834 81.0976 60.3166 81.0976 60.7071 80.7071L67.0711 74.3431C67.4616 73.9526 67.4616 73.3195 67.0711 72.9289C66.6805 72.5384 66.0474 72.5384 65.6569 72.9289L60 78.5858L54.3431 72.9289C53.9526 72.5384 53.3195 72.5384 52.9289 72.9289C52.5384 73.3195 52.5384 73.9526 52.9289 74.3431L59.2929 80.7071ZM59 40V80H61V40H59Z" fill="#04364A"/>
    <g>
        <path d="M13.2371 72.239C13.3911 72.0324 13.7122 72.2182 13.6107 72.4553L12.7593 74.4437C11.6598 77.0113 12.4585 79.9996 14.6913 81.6721L16.4204 82.9673C16.6265 83.1218 16.4412 83.4437 16.2047 83.3419L14.2212 82.4883C11.6601 81.3861 8.67914 82.1868 7.01084 84.4252L5.71886 86.1586C5.56481 86.3653 5.24373 86.1794 5.34522 85.9423L6.19669 83.9539C7.29616 81.3864 6.49742 78.398 4.26465 76.7255L2.53553 75.4303C2.32942 75.2759 2.5148 74.954 2.75125 75.0557L4.73471 75.9093C7.29589 77.0115 10.2768 76.2108 11.9451 73.9724L13.2371 72.239Z" fill="#5AB8B1"/>
        <path d="M115.219 35.6993C115.373 35.4927 115.694 35.6785 115.593 35.9156L114.741 37.904C113.642 40.4716 114.44 43.46 116.673 45.1324L118.402 46.4277C118.608 46.5821 118.423 46.904 118.187 46.8022L116.203 45.9486C113.642 44.8464 110.661 45.6471 108.993 47.8855L107.701 49.6189C107.547 49.8256 107.226 49.6397 107.327 49.4027L108.179 47.4143C109.278 44.8467 108.479 41.8583 106.247 40.1858L104.517 38.8906C104.311 38.7362 104.497 38.4143 104.733 38.516L106.717 39.3696C109.278 40.4719 112.259 39.6711 113.927 37.4328L115.219 35.6993Z" fill="#5AB8B1"/>
        <path d="M120 60.0741C120 60.925 119.854 61.6719 119.561 62.3148C119.269 62.9577 118.835 63.506 118.26 63.9598L117.001 62.8678C117.491 62.4802 117.85 62.0548 118.076 61.5915C118.312 61.1377 118.43 60.6082 118.43 60.0032C118.43 59.6061 118.378 59.2752 118.274 59.0104C118.17 58.7552 118.034 58.5661 117.864 58.4432C117.694 58.3297 117.506 58.273 117.298 58.273C117.043 58.273 116.827 58.3723 116.647 58.5708C116.478 58.7694 116.336 59.1097 116.223 59.5919L115.827 61.3362C115.619 62.2628 115.308 62.9246 114.893 63.3216C114.488 63.7282 113.96 63.9315 113.309 63.9315C112.696 63.9315 112.168 63.7707 111.724 63.4493C111.291 63.1278 110.956 62.6787 110.72 62.102C110.494 61.5253 110.381 60.8635 110.381 60.1166C110.381 59.4643 110.456 58.8639 110.607 58.3156C110.767 57.7767 110.984 57.2945 111.258 56.869C111.531 56.4436 111.847 56.089 112.205 55.8054L113.521 56.9116C113.219 57.129 112.95 57.3985 112.715 57.7199C112.479 58.0414 112.29 58.4054 112.149 58.8119C112.017 59.2279 111.951 59.6628 111.951 60.1166C111.951 60.5042 111.993 60.8304 112.078 61.0951C112.172 61.3693 112.3 61.5726 112.46 61.7049C112.63 61.8468 112.833 61.9177 113.068 61.9177C113.314 61.9177 113.521 61.8326 113.691 61.6624C113.87 61.5017 114.007 61.1991 114.101 60.7548L114.525 58.8545C114.657 58.3061 114.827 57.8334 115.035 57.4363C115.252 57.0487 115.525 56.7509 115.855 56.5429C116.195 56.3443 116.595 56.245 117.058 56.245C117.614 56.245 118.114 56.3963 118.557 56.6989C119 57.0014 119.349 57.4363 119.604 58.0036C119.868 58.5803 120 59.2704 120 60.0741Z" fill="#04364A"/>
        <path d="M110.505 77.0029C109.962 76.6837 109.54 76.2873 109.239 75.8136C108.938 75.34 108.754 74.8224 108.688 74.2608C108.622 73.6992 108.665 73.1109 108.816 72.4959C109.037 71.5963 109.417 70.8624 109.955 70.2942C110.49 69.7352 111.15 69.3627 111.934 69.1766C112.716 68.9998 113.592 69.0313 114.563 69.2711C115.533 69.5109 116.324 69.8912 116.934 70.412C117.542 70.942 117.953 71.5792 118.168 72.3237C118.381 73.0774 118.379 73.8949 118.163 74.7762C118.009 75.4004 117.783 75.9434 117.485 76.4053C117.196 76.8695 116.835 77.233 116.401 77.4958C115.965 77.7679 115.462 77.9209 114.89 77.9549L114.585 76.0538C115.173 76.0335 115.621 75.891 115.929 75.6263C116.246 75.3638 116.466 74.9801 116.59 74.4753C116.712 73.9796 116.7 73.5141 116.555 73.0789C116.407 72.6529 116.125 72.2812 115.707 71.9639C115.299 71.6488 114.756 71.4075 114.078 71.2401C113.41 71.075 112.82 71.0265 112.308 71.0947C111.793 71.1721 111.372 71.3649 111.044 71.6733C110.715 71.9816 110.486 72.402 110.355 72.9344C110.233 73.4302 110.261 73.8898 110.438 74.3134C110.613 74.7462 110.953 75.1028 111.457 75.3832L110.505 77.0029Z" fill="#04364A"/>
        <path d="M112.758 88.3538C112.267 89.2914 111.656 89.9095 110.924 90.208C110.193 90.5065 109.447 90.4558 108.687 90.056C107.877 89.6298 107.396 89.0346 107.242 88.2704C107.096 87.5105 107.267 86.666 107.753 85.7368L107.745 85.5082L108.679 83.7251L105.51 82.0577L106.404 80.35L114.671 84.6997L112.758 88.3538ZM109.08 86.1626C108.826 86.6481 108.734 87.0586 108.803 87.3941C108.876 87.7423 109.118 88.024 109.527 88.2393C109.936 88.4546 110.3 88.4914 110.619 88.3497C110.942 88.2207 111.231 87.9135 111.485 87.4279L112.399 85.6825L109.994 84.4171L109.08 86.1626ZM108.184 86.9886L102.657 87.5075L103.676 85.5612L108.459 85.2432L108.184 86.9886Z" fill="#04364A"/>
        <path d="M104.698 100.128C104.085 100.821 103.412 101.29 102.679 101.536C101.945 101.781 101.191 101.8 100.417 101.593C99.6368 101.392 98.8725 100.96 98.1242 100.295C97.376 99.6305 96.8555 98.922 96.563 98.1696C96.2641 97.4242 96.192 96.6717 96.3466 95.9122C96.5012 95.1527 96.8849 94.4262 97.4978 93.7327C98.1107 93.0392 98.7869 92.5662 99.5266 92.3137C100.26 92.0683 101.017 92.0459 101.797 92.2464C102.571 92.4539 103.333 92.89 104.081 93.5545C104.829 94.2191 105.353 94.9241 105.652 95.6694C105.944 96.4219 106.013 97.1779 105.859 97.9374C105.698 98.704 105.311 99.434 104.698 100.128ZM103.502 99.0648C103.852 98.6686 104.057 98.2509 104.117 97.8119C104.178 97.3729 104.094 96.9192 103.865 96.4509C103.637 95.9959 103.262 95.5364 102.74 95.0725C102.224 94.6148 101.724 94.2969 101.239 94.1187C100.748 93.9475 100.288 93.9185 99.8608 94.0315C99.4333 94.1444 99.0445 94.3991 98.6943 94.7954C98.3503 95.1846 98.1482 95.5987 98.0878 96.0377C98.0275 96.4767 98.1147 96.9268 98.3497 97.3881C98.5784 97.8565 98.9503 98.3195 99.4657 98.7771C99.988 99.2411 100.491 99.5555 100.976 99.7203C101.461 99.8985 101.917 99.9311 102.344 99.8182C102.772 99.7052 103.158 99.4541 103.502 99.0648Z" fill="#04364A"/>
        <path d="M90.2207 102.543L86.1692 105.347L85.2773 104.051L90.9353 100.136L96.239 107.839L94.6324 108.951L90.2207 102.543Z" fill="#04364A"/>
        <path d="M79.1867 108.557L74.5837 110.307L74.0269 108.836L80.4552 106.391L83.766 115.143L81.9406 115.837L79.1867 108.557Z" fill="#04364A"/>
        <path d="M52.7301 119.564C51.279 119.387 50.2044 118.847 49.5064 117.943C48.8073 117.048 48.5481 115.855 48.7288 114.363C48.9084 112.88 49.445 111.783 50.3385 111.073C51.2321 110.363 52.4044 110.096 53.8555 110.273L57.4365 110.708L56.3111 120L52.7301 119.564ZM53.7662 111.833C52.8862 111.726 52.1944 111.908 51.6907 112.38C51.1765 112.861 50.8586 113.603 50.737 114.607C50.6153 115.611 50.7474 116.404 51.1331 116.984C51.5083 117.573 52.1359 117.92 53.016 118.027L54.5607 118.216L55.311 112.021L53.7662 111.833Z" fill="#04364A"/>
        <path d="M38.4239 116.127C37.5597 115.799 36.8832 115.334 36.3942 114.734C35.9052 114.133 35.6203 113.433 35.5394 112.634C35.4496 111.832 35.582 110.962 35.9365 110.025C36.291 109.088 36.7673 108.349 37.3653 107.808C37.9546 107.263 38.6308 106.929 39.394 106.804C40.1571 106.68 40.9708 106.782 41.835 107.111C42.6991 107.439 43.3801 107.905 43.8779 108.509C44.3668 109.11 44.6562 109.811 44.7459 110.614C44.8268 111.413 44.6901 112.281 44.3356 113.218C43.9811 114.155 43.5092 114.896 42.92 115.44C42.3219 115.981 41.6413 116.314 40.8781 116.439C40.1061 116.56 39.288 116.456 38.4239 116.127ZM38.9907 114.629C39.4845 114.817 39.9469 114.861 40.3777 114.762C40.8086 114.663 41.2018 114.423 41.5576 114.043C41.9011 113.668 42.1967 113.153 42.4441 112.499C42.6883 111.854 42.8074 111.272 42.8016 110.754C42.787 110.233 42.6512 109.792 42.3943 109.431C42.1373 109.071 41.7619 108.797 41.2681 108.609C40.7831 108.425 40.3252 108.382 39.8944 108.481C39.4635 108.58 39.0746 108.821 38.7277 109.205C38.372 109.586 38.0721 110.099 37.8279 110.744C37.5805 111.398 37.4657 111.981 37.4837 112.494C37.4895 113.012 37.6209 113.451 37.8778 113.811C38.1348 114.172 38.5057 114.445 38.9907 114.629Z" fill="#04364A"/>
        <path d="M34.5738 103.948L31.5054 113.198L29.794 112.014L32.6601 104.606L26.7437 109.903L25.207 108.84L28.0265 101.399L22.1451 106.721L20.5036 105.585L28.0426 99.4287L29.8471 100.677L28.0252 105.62L27.1325 107.691L27.1558 107.707L28.7703 106.136L32.7227 102.667L34.5738 103.948Z" fill="#04364A"/>
        <path d="M12.3281 96.5484L19.3166 90.3417L20.7987 92.0189L18.8573 98.1198L18.2484 99.7405L18.2578 99.7511L19.4273 98.6366L23.4722 95.0442L24.6354 96.3604L17.6469 102.567L16.1742 100.901L18.105 94.8091L18.7245 93.179L18.7057 93.1578L17.5361 94.2723L13.4913 97.8647L12.3281 96.5484Z" fill="#04364A"/>
        <path d="M0 59.9259C-3.71009e-08 59.0751 0.146177 58.3282 0.438531 57.6853C0.730885 57.0424 1.1647 56.494 1.73998 56.0402L2.99899 57.1322C2.50859 57.5198 2.15022 57.9453 1.92388 58.4085C1.68811 58.8623 1.57023 59.3918 1.57023 59.9969C1.57023 60.3939 1.62209 60.7248 1.72583 60.9896C1.82957 61.2448 1.96632 61.4339 2.13607 61.5568C2.30583 61.6703 2.49444 61.727 2.70192 61.727C2.95655 61.727 3.17346 61.6277 3.35264 61.4292C3.5224 61.2306 3.66386 60.8903 3.77703 60.4081L4.17312 58.6638C4.3806 57.7373 4.69182 57.0754 5.10677 56.6784C5.51229 56.2718 6.04042 56.0686 6.69114 56.0686C7.30414 56.0686 7.83227 56.2293 8.27551 56.5507C8.70933 56.8722 9.04412 57.3213 9.27989 57.898C9.50623 58.4747 9.6194 59.1365 9.6194 59.8834C9.6194 60.5357 9.54395 61.1361 9.39306 61.6845C9.23274 62.2234 9.01583 62.7055 8.74234 63.131C8.46884 63.5564 8.15291 63.911 7.79454 64.1946L6.47895 63.0884C6.78073 62.871 7.04951 62.6015 7.28528 62.2801C7.52105 61.9586 7.70967 61.5946 7.85113 61.1881C7.98316 60.7721 8.04917 60.3372 8.04917 59.8834C8.04917 59.4958 8.00674 59.1696 7.92186 58.9049C7.82755 58.6307 7.70024 58.4274 7.53991 58.2951C7.37016 58.1532 7.1674 58.0823 6.93163 58.0823C6.68643 58.0823 6.47895 58.1674 6.30919 58.3376C6.13001 58.4983 5.99326 58.8009 5.89896 59.2452L5.47457 61.1456C5.34254 61.6939 5.17279 62.1666 4.96531 62.5637C4.7484 62.9513 4.47491 63.2492 4.14483 63.4572C3.80532 63.6557 3.40451 63.755 2.9424 63.755C2.38599 63.755 1.88616 63.6037 1.44291 63.3012C0.999663 62.9986 0.650724 62.5637 0.396093 61.9965C0.132031 61.4197 3.50398e-08 60.7296 0 59.9259Z" fill="#04364A"/>
        <path d="M9.49465 42.9971C10.0378 43.3163 10.46 43.7127 10.7612 44.1864C11.0624 44.66 11.2459 45.1777 11.3119 45.7392C11.3778 46.3008 11.3351 46.8891 11.1839 47.5041C10.9627 48.4038 10.5832 49.1376 10.0452 49.7058C9.50956 50.2648 8.84976 50.6373 8.06582 50.8234C7.28415 51.0002 6.408 50.9688 5.43739 50.7289C4.46677 50.4891 3.67639 50.1088 3.06624 49.588C2.45835 49.058 2.04681 48.4208 1.83163 47.6763C1.6187 46.9226 1.62057 46.1051 1.83723 45.2239C1.99071 44.5996 2.2165 44.0566 2.51461 43.5947C2.80356 43.1305 3.16489 42.767 3.59861 42.5042C4.03459 42.2322 4.53844 42.0791 5.11015 42.0451L5.41494 43.9462C4.82717 43.9665 4.37932 44.109 4.07141 44.3737C3.75435 44.6362 3.53375 45.0199 3.40961 45.5247C3.28774 46.0204 3.29957 46.4859 3.44511 46.9211C3.59291 47.3471 3.87548 47.7188 4.29282 48.0361C4.70101 48.3512 5.2439 48.5925 5.9215 48.7599C6.58994 48.9251 7.18023 48.9735 7.69236 48.9053C8.20675 48.828 8.62812 48.6351 8.95647 48.3267C9.28483 48.0184 9.51445 47.598 9.64536 47.0656C9.76723 46.5699 9.73941 46.1102 9.56188 45.6866C9.38661 45.2538 9.04691 44.8972 8.54277 44.6168L9.49465 42.9971Z" fill="#04364A"/>
        <path d="M7.24217 31.6462C7.73303 30.7086 8.34417 30.0905 9.07559 29.792C9.80702 29.4935 10.5527 29.5442 11.3126 29.944C12.1226 30.3702 12.6044 30.9654 12.7582 31.7296C12.9036 32.4895 12.733 33.334 12.2465 34.2632L12.2547 34.4918L11.3212 36.2749L14.4902 37.9423L13.5962 39.6501L5.32912 35.3003L7.24217 31.6462ZM10.9198 33.8374C11.174 33.3519 11.2664 32.9414 11.1971 32.6059C11.1237 32.2577 10.8825 31.976 10.4733 31.7607C10.0641 31.5454 9.69997 31.5086 9.38081 31.6503C9.05768 31.7793 8.76902 32.0865 8.51482 32.5721L7.60103 34.3175L10.006 35.5829L10.9198 33.8374ZM11.8155 33.0114L17.3434 32.4925L16.3244 34.4388L11.5408 34.7568L11.8155 33.0114Z" fill="#04364A"/>
        <path d="M15.302 19.8725C15.9149 19.179 16.588 18.7095 17.3215 18.4641C18.0549 18.2187 18.8087 18.1998 19.5828 18.4073C20.3632 18.6078 21.1275 19.0403 21.8758 19.7049C22.624 20.3695 23.1445 21.078 23.437 21.8304C23.7359 22.5758 23.808 23.3283 23.6534 24.0878C23.4988 24.8472 23.1151 25.5738 22.5022 26.2673C21.8894 26.9608 21.2131 27.4338 20.4734 27.6863C19.7399 27.9317 18.983 27.9541 18.2026 27.7536C17.4285 27.5461 16.6673 27.11 15.9191 26.4455C15.1708 25.7809 14.6473 25.0759 14.3484 24.3305C14.0558 23.5781 13.9868 22.8221 14.1414 22.0626C14.3023 21.296 14.6891 20.566 15.302 19.8725ZM16.4985 20.9351C16.1483 21.3314 15.943 21.7491 15.8826 22.1881C15.8223 22.6271 15.9064 23.0807 16.1351 23.5491C16.363 24.0041 16.7381 24.4636 17.2605 24.9275C17.7758 25.3852 18.276 25.7031 18.7611 25.8813C19.2524 26.0524 19.7118 26.0815 20.1392 25.9685C20.5667 25.8555 20.9555 25.6009 21.3057 25.2046C21.6497 24.8154 21.8518 24.4013 21.9122 23.9623C21.9726 23.5233 21.8853 23.0731 21.6503 22.6119C21.4216 22.1435 21.0497 21.6805 20.5343 21.2228C20.012 20.7589 19.5086 20.4445 19.0244 20.2797C18.5393 20.1015 18.083 20.0688 17.6556 20.1818C17.2282 20.2948 16.8425 20.5459 16.4985 20.9351Z" fill="#04364A"/>
        <path d="M29.7793 17.4568L33.8307 14.6533L34.7227 15.9488L29.0647 19.8641L23.761 12.1611L25.3676 11.0493L29.7793 17.4568Z" fill="#04364A"/>
        <path d="M40.8133 11.4427L45.4163 9.69264L45.9731 11.1645L39.5448 13.6085L36.234 4.85692L38.0594 4.16294L40.8133 11.4427Z" fill="#04364A"/>
        <path d="M67.2699 0.435897C68.721 0.612534 69.7956 1.15286 70.4936 2.05687C71.1927 2.9515 71.4519 4.14496 71.2712 5.63725C71.0916 7.12015 70.555 8.21674 69.6615 8.92702C68.7679 9.6373 67.5956 9.90412 66.1445 9.72749L62.5635 9.29159L63.6889 0L67.2699 0.435897ZM66.2338 8.16692C67.1138 8.27404 67.8056 8.09159 68.3093 7.61957C68.8235 7.1393 69.1414 6.39704 69.263 5.3928C69.3847 4.38856 69.2526 3.5963 68.8669 3.01601C68.4917 2.42748 67.8641 2.07965 66.984 1.97253L65.4393 1.7845L64.689 7.97889L66.2338 8.16692Z" fill="#04364A"/>
        <path d="M81.5761 3.87267C82.4403 4.20123 83.1168 4.66574 83.6058 5.26621C84.0948 5.86668 84.3797 6.56654 84.4606 7.36577C84.5504 8.16836 84.418 9.03818 84.0635 9.97522C83.709 10.9123 83.2327 11.6513 82.6347 12.1924C82.0454 12.7369 81.3692 13.0713 80.606 13.1957C79.8429 13.3201 79.0292 13.218 78.165 12.8895C77.3009 12.5609 76.6199 12.0947 76.1221 11.4909C75.6332 10.8904 75.3438 10.1889 75.2541 9.38631C75.1731 8.58708 75.3099 7.71894 75.6644 6.7819C76.0189 5.84486 76.4908 5.10412 77.08 4.55967C77.6781 4.01859 78.3587 3.68584 79.1219 3.56143C79.8939 3.44037 80.712 3.54412 81.5761 3.87267ZM81.0093 5.37105C80.5155 5.18331 80.0531 5.13898 79.6223 5.23807C79.1914 5.33716 78.7982 5.57693 78.4424 5.95736C78.0989 6.33231 77.8033 6.84686 77.5559 7.50102C77.3117 8.14634 77.1926 8.72795 77.1984 9.24584C77.213 9.76708 77.3488 10.208 77.6057 10.5686C77.8627 10.9292 78.2381 11.2033 78.7319 11.3911C79.2169 11.5755 79.6748 11.6181 80.1056 11.519C80.5365 11.42 80.9254 11.1785 81.2723 10.7947C81.628 10.4143 81.9279 9.90141 82.1721 9.25609C82.4195 8.60193 82.5343 8.01865 82.5163 7.50625C82.5105 6.98836 82.3791 6.54912 82.1222 6.18853C81.8652 5.82794 81.4943 5.55544 81.0093 5.37105Z" fill="#04364A"/>
        <path d="M85.4262 16.0519L88.4946 6.80213L90.206 7.98637L87.3399 15.3945L93.2562 10.0971L94.793 11.1604L91.9734 18.6008L97.8548 13.2792L99.4964 14.4151L91.9574 20.5713L90.1529 19.3226L91.9747 14.3798L92.8674 12.3094L92.8441 12.2933L91.2296 13.8643L87.2773 17.3328L85.4262 16.0519Z" fill="#04364A"/>
        <path d="M107.672 23.4516L100.683 29.6583L99.2013 27.9811L101.143 21.8802L101.752 20.2595L101.742 20.2489L100.573 21.3634L96.5278 24.9558L95.3646 23.6396L102.353 17.4328L103.826 19.0994L101.895 25.1909L101.276 26.821L101.294 26.8422L102.464 25.7277L106.509 22.1353L107.672 23.4516Z" fill="#04364A"/>
        <animateTransform
            attributeName="transform"
            attributeType="XML"
            type="rotate"
            from="0 60 60"
            to="360 60 60"
            dur="20s"
            repeatCount="indefinite" 
        />
    </g>
</svg>
