<svg width="141" height="27" viewBox="0 0 141 27" fill="none" xmlns="http://www.w3.org/2000/svg">
<path d="M8.914 2.896C10.3007 2.896 11.378 3.03466 12.146 3.312C12.914 3.58933 13.5647 3.87733 14.098 4.176C14.354 4.32533 14.5567 4.44267 14.706 4.528C14.8767 4.592 15.0367 4.624 15.186 4.624C15.3993 4.624 15.5487 4.50667 15.634 4.272C15.7407 4.03733 15.826 3.68533 15.89 3.216H16.626C16.6047 3.664 16.5727 4.18667 16.53 4.784C16.5087 5.38133 16.4873 6.17067 16.466 7.152C16.466 8.13333 16.466 9.424 16.466 11.024H15.73C15.6447 9.85067 15.3673 8.70933 14.898 7.6C14.45 6.49067 13.8207 5.57333 13.01 4.848C12.2207 4.12267 11.2713 3.76 10.162 3.76C9.22333 3.76 8.44467 4.016 7.826 4.528C7.20733 5.04 6.898 5.776 6.898 6.736C6.898 7.52533 7.09 8.208 7.474 8.784C7.858 9.33867 8.45533 9.92533 9.266 10.544C10.098 11.1627 11.186 11.9413 12.53 12.88C13.49 13.5413 14.354 14.2027 15.122 14.864C15.9113 15.5253 16.5407 16.272 17.01 17.104C17.4793 17.936 17.714 18.9387 17.714 20.112C17.714 21.5413 17.3087 22.7253 16.498 23.664C15.7087 24.6027 14.6527 25.3067 13.33 25.776C12.0073 26.224 10.5673 26.448 9.01 26.448C7.55933 26.448 6.39667 26.32 5.522 26.064C4.66867 25.808 3.94333 25.5413 3.346 25.264C2.87667 24.9653 2.514 24.816 2.258 24.816C2.04467 24.816 1.88467 24.9333 1.778 25.168C1.69267 25.4027 1.618 25.7547 1.554 26.224H0.818C0.860667 25.6693 0.882 25.0293 0.882 24.304C0.903333 23.5573 0.914 22.5973 0.914 21.424C0.935333 20.2507 0.946 18.7573 0.946 16.944H1.682C1.76733 18.4373 2.002 19.8347 2.386 21.136C2.79133 22.4373 3.39933 23.4933 4.21 24.304C5.042 25.0933 6.14067 25.488 7.506 25.488C8.29533 25.488 8.96733 25.3707 9.522 25.136C10.098 24.88 10.546 24.5173 10.866 24.048C11.186 23.5787 11.346 23.0133 11.346 22.352C11.346 21.456 11.1433 20.6773 10.738 20.016C10.3327 19.3333 9.778 18.704 9.074 18.128C8.39133 17.5307 7.59133 16.9333 6.674 16.336C5.67133 15.6533 4.73267 14.9707 3.858 14.288C2.98333 13.6053 2.27933 12.8373 1.746 11.984C1.234 11.1307 0.978 10.1173 0.978 8.944C0.978 7.536 1.35133 6.39467 2.098 5.52C2.84467 4.624 3.826 3.96267 5.042 3.536C6.258 3.10933 7.54867 2.896 8.914 2.896ZM28.091 8.944C29.755 8.944 31.195 9.232 32.411 9.808C33.6483 10.3627 34.6083 11.28 35.291 12.56C35.9737 13.84 36.315 15.5573 36.315 17.712C36.315 19.8667 35.9737 21.584 35.291 22.864C34.6083 24.144 33.6483 25.0613 32.411 25.616C31.195 26.1707 29.755 26.448 28.091 26.448C26.4483 26.448 25.0083 26.1707 23.771 25.616C22.5337 25.0613 21.5737 24.144 20.891 22.864C20.2083 21.584 19.867 19.8667 19.867 17.712C19.867 15.5573 20.2083 13.84 20.891 12.56C21.5737 11.28 22.5337 10.3627 23.771 9.808C25.0083 9.232 26.4483 8.944 28.091 8.944ZM28.091 9.584C27.451 9.584 26.9177 10.224 26.491 11.504C26.0643 12.784 25.851 14.8533 25.851 17.712C25.851 20.5707 26.0643 22.64 26.491 23.92C26.9177 25.1787 27.451 25.808 28.091 25.808C28.731 25.808 29.2643 25.1787 29.691 23.92C30.1177 22.64 30.331 20.5707 30.331 17.712C30.331 14.8533 30.1177 12.784 29.691 11.504C29.2643 10.224 28.731 9.584 28.091 9.584ZM45.128 0.975998V23.024C45.128 23.92 45.256 24.528 45.512 24.848C45.7893 25.168 46.2587 25.328 46.92 25.328V26C46.4933 25.9787 45.8533 25.9573 45 25.936C44.1467 25.8933 43.272 25.872 42.376 25.872C41.48 25.872 40.5733 25.8933 39.656 25.936C38.7387 25.9573 38.0453 25.9787 37.576 26V25.328C38.2373 25.328 38.696 25.168 38.952 24.848C39.2293 24.528 39.368 23.92 39.368 23.024V4.816C39.368 3.856 39.24 3.152 38.984 2.704C38.728 2.23466 38.2587 2 37.576 2V1.328C38.2587 1.392 38.92 1.424 39.56 1.424C40.6267 1.424 41.6187 1.392 42.536 1.328C43.4747 1.24267 44.3387 1.12533 45.128 0.975998ZM56.4035 8.944C58.0675 8.944 59.5075 9.232 60.7235 9.808C61.9608 10.3627 62.9208 11.28 63.6035 12.56C64.2862 13.84 64.6275 15.5573 64.6275 17.712C64.6275 19.8667 64.2862 21.584 63.6035 22.864C62.9208 24.144 61.9608 25.0613 60.7235 25.616C59.5075 26.1707 58.0675 26.448 56.4035 26.448C54.7608 26.448 53.3208 26.1707 52.0835 25.616C50.8462 25.0613 49.8862 24.144 49.2035 22.864C48.5208 21.584 48.1795 19.8667 48.1795 17.712C48.1795 15.5573 48.5208 13.84 49.2035 12.56C49.8862 11.28 50.8462 10.3627 52.0835 9.808C53.3208 9.232 54.7608 8.944 56.4035 8.944ZM56.4035 9.584C55.7635 9.584 55.2302 10.224 54.8035 11.504C54.3768 12.784 54.1635 14.8533 54.1635 17.712C54.1635 20.5707 54.3768 22.64 54.8035 23.92C55.2302 25.1787 55.7635 25.808 56.4035 25.808C57.0435 25.808 57.5768 25.1787 58.0035 23.92C58.4302 22.64 58.6435 20.5707 58.6435 17.712C58.6435 14.8533 58.4302 12.784 58.0035 11.504C57.5768 10.224 57.0435 9.584 56.4035 9.584ZM72.441 9.04C73.2943 9.04 74.0303 9.17867 74.649 9.456C75.289 9.712 75.7477 9.94667 76.025 10.16C76.729 10.7147 77.1663 10.352 77.337 9.072H78.041C77.9983 9.66933 77.9663 10.3947 77.945 11.248C77.9237 12.08 77.913 13.1893 77.913 14.576H77.209C77.081 13.7867 76.857 13.0187 76.537 12.272C76.2383 11.5253 75.7903 10.9067 75.193 10.416C74.617 9.92533 73.8597 9.68 72.921 9.68C72.217 9.68 71.6303 9.88267 71.161 10.288C70.6917 10.672 70.457 11.248 70.457 12.016C70.457 12.656 70.649 13.2107 71.033 13.68C71.417 14.1493 71.9077 14.5867 72.505 14.992C73.1237 15.3973 73.785 15.8347 74.489 16.304C75.2783 16.8373 75.9823 17.3707 76.601 17.904C77.241 18.416 77.7423 18.992 78.105 19.632C78.489 20.272 78.681 21.0187 78.681 21.872C78.681 22.8533 78.4143 23.6853 77.881 24.368C77.369 25.0507 76.6863 25.5733 75.833 25.936C74.9797 26.2773 74.041 26.448 73.017 26.448C72.505 26.448 72.025 26.3947 71.577 26.288C71.129 26.2027 70.713 26.0853 70.329 25.936C70.0943 25.808 69.8597 25.68 69.625 25.552C69.4117 25.4027 69.1983 25.264 68.985 25.136C68.7717 24.9867 68.5797 25.008 68.409 25.2C68.2383 25.392 68.1103 25.7333 68.025 26.224H67.321C67.3637 25.5413 67.3957 24.7093 67.417 23.728C67.4383 22.7467 67.449 21.4453 67.449 19.824H68.153C68.3023 20.9973 68.5263 22.032 68.825 22.928C69.1237 23.824 69.561 24.528 70.137 25.04C70.7343 25.5307 71.545 25.776 72.569 25.776C72.9743 25.776 73.3797 25.6907 73.785 25.52C74.1903 25.328 74.521 25.0293 74.777 24.624C75.0543 24.2187 75.193 23.6747 75.193 22.992C75.193 22.0533 74.8623 21.2853 74.201 20.688C73.561 20.0693 72.729 19.4187 71.705 18.736C70.9797 18.224 70.2863 17.7227 69.625 17.232C68.985 16.72 68.4623 16.1547 68.057 15.536C67.6517 14.896 67.449 14.1387 67.449 13.264C67.449 12.304 67.673 11.5147 68.121 10.896C68.5903 10.2773 69.209 9.81867 69.977 9.52C70.745 9.2 71.5663 9.04 72.441 9.04ZM95.9658 9.136V22.544C95.9658 23.504 96.1258 24.2187 96.4458 24.688C96.7871 25.136 97.3951 25.36 98.2698 25.36V26.032C97.6084 25.968 96.9471 25.936 96.2858 25.936C95.5818 25.936 94.9098 25.968 94.2698 26.032C93.6298 26.096 93.0431 26.2133 92.5098 26.384V22.896C91.9764 24.176 91.2298 25.0933 90.2698 25.648C89.3311 26.1813 88.3391 26.448 87.2938 26.448C86.5044 26.448 85.8324 26.3307 85.2778 26.096C84.7231 25.8827 84.2644 25.5947 83.9018 25.232C83.5178 24.8053 83.2511 24.2613 83.1018 23.6C82.9524 22.9173 82.8778 22.064 82.8778 21.04V12.976C82.8778 12.016 82.7178 11.312 82.3978 10.864C82.0778 10.3947 81.4698 10.16 80.5738 10.16V9.488C81.2564 9.552 81.9178 9.584 82.5578 9.584C83.2618 9.584 83.9338 9.552 84.5738 9.488C85.2138 9.40267 85.8004 9.28533 86.3338 9.136V21.936C86.3338 22.5547 86.3764 23.12 86.4618 23.632C86.5471 24.144 86.7498 24.5493 87.0698 24.848C87.3898 25.1467 87.9018 25.296 88.6058 25.296C89.3524 25.296 90.0138 25.072 90.5898 24.624C91.1871 24.176 91.6564 23.568 91.9978 22.8C92.3391 22.032 92.5098 21.168 92.5098 20.208V12.976C92.5098 12.016 92.3498 11.312 92.0298 10.864C91.7098 10.3947 91.1018 10.16 90.2058 10.16V9.488C90.8884 9.552 91.5498 9.584 92.1898 9.584C92.8938 9.584 93.5658 9.552 94.2058 9.488C94.8458 9.40267 95.4324 9.28533 95.9658 9.136ZM105.402 4.208V9.52H109.818V10.16H105.402V22.736C105.402 23.6107 105.562 24.2293 105.882 24.592C106.202 24.9547 106.66 25.136 107.258 25.136C107.812 25.136 108.303 24.912 108.73 24.464C109.178 24.016 109.562 23.2587 109.882 22.192L110.49 22.416C110.234 23.5467 109.775 24.5067 109.114 25.296C108.474 26.064 107.524 26.448 106.266 26.448C105.54 26.448 104.932 26.352 104.442 26.16C103.951 25.9893 103.524 25.7333 103.161 25.392C102.692 24.9013 102.372 24.3147 102.202 23.632C102.031 22.9493 101.946 22.0427 101.946 20.912V10.16H99.0015V9.52H101.946V4.848C102.607 4.82667 103.226 4.77333 103.802 4.688C104.378 4.58133 104.911 4.42133 105.402 4.208ZM118.988 9.04C120.865 9.04 122.337 9.60533 123.404 10.736C124.47 11.8667 125.004 13.6587 125.004 16.112H113.964L113.9 15.504H121.612C121.633 14.4587 121.548 13.4987 121.356 12.624C121.164 11.728 120.865 11.0133 120.46 10.48C120.054 9.94667 119.521 9.68 118.86 9.68C117.942 9.68 117.142 10.1707 116.46 11.152C115.798 12.112 115.393 13.6587 115.244 15.792L115.34 15.952C115.318 16.2507 115.297 16.5813 115.276 16.944C115.254 17.2853 115.244 17.6267 115.244 17.968C115.244 19.44 115.468 20.6773 115.916 21.68C116.364 22.6827 116.95 23.44 117.676 23.952C118.401 24.4427 119.137 24.688 119.884 24.688C120.46 24.688 121.014 24.6027 121.548 24.432C122.102 24.24 122.625 23.9307 123.116 23.504C123.606 23.056 124.044 22.448 124.428 21.68L125.068 21.936C124.812 22.6613 124.417 23.376 123.884 24.08C123.35 24.784 122.668 25.36 121.836 25.808C121.004 26.2347 120.033 26.448 118.924 26.448C117.43 26.448 116.129 26.1173 115.02 25.456C113.91 24.7733 113.057 23.8027 112.46 22.544C111.862 21.2853 111.564 19.792 111.564 18.064C111.564 16.1653 111.873 14.544 112.492 13.2C113.11 11.856 113.974 10.832 115.084 10.128C116.214 9.40267 117.516 9.04 118.988 9.04ZM137.449 9.04C138.068 9.04 138.591 9.168 139.017 9.424C139.465 9.68 139.796 10.0107 140.009 10.416C140.244 10.8 140.361 11.2373 140.361 11.728C140.361 12.3467 140.169 12.88 139.785 13.328C139.423 13.7547 138.932 13.968 138.313 13.968C137.78 13.968 137.321 13.808 136.937 13.488C136.575 13.168 136.393 12.7307 136.393 12.176C136.393 11.7067 136.511 11.312 136.745 10.992C137.001 10.6507 137.289 10.384 137.609 10.192C137.396 10.0213 137.14 9.94667 136.841 9.968C136.265 9.98933 135.732 10.1813 135.241 10.544C134.751 10.8853 134.335 11.3333 133.993 11.888C133.652 12.4213 133.385 12.9973 133.193 13.616C133.001 14.2347 132.905 14.8107 132.905 15.344V22.704C132.905 23.7493 133.193 24.4533 133.769 24.816C134.345 25.1573 135.145 25.328 136.169 25.328V26C135.679 25.9787 134.975 25.9573 134.057 25.936C133.161 25.8933 132.212 25.872 131.209 25.872C130.441 25.872 129.673 25.8933 128.905 25.936C128.137 25.9573 127.551 25.9787 127.145 26V25.328C127.977 25.328 128.564 25.168 128.905 24.848C129.268 24.528 129.449 23.92 129.449 23.024V12.976C129.449 12.016 129.289 11.312 128.969 10.864C128.649 10.3947 128.041 10.16 127.145 10.16V9.488C127.828 9.552 128.489 9.584 129.129 9.584C129.855 9.584 130.527 9.552 131.145 9.488C131.785 9.40267 132.372 9.28533 132.905 9.136V12.816C133.161 12.1973 133.503 11.6 133.929 11.024C134.356 10.448 134.868 9.97867 135.465 9.616C136.063 9.232 136.724 9.04 137.449 9.04Z" fill="white"/>
</svg>
