<svg width="200" height="222" viewBox="0 0 200 222" fill="none" xmlns="http://www.w3.org/2000/svg">
<path fill-rule="evenodd" clip-rule="evenodd" d="M127.69 62.4428C185.55 -4.72255 242.015 94.6264 155.574 110.718C242.015 127.509 184.853 226.159 127.69 158.993C156.968 242.949 43.3391 242.25 72.618 158.993C14.7575 226.159 -41.7084 127.509 44.7333 110.718C-42.4055 94.6264 14.7575 -4.02293 72.618 62.4428C42.642 -20.8142 156.968 -20.8142 127.69 62.4428ZM99.8047 98.1246C106.776 98.1246 113.05 103.722 113.05 110.718C113.05 117.714 106.776 124.011 99.8047 124.011C92.834 124.011 87.2566 117.714 87.2566 110.718C87.2566 103.722 92.834 98.1246 99.8047 98.1246Z" fill="#C5C765"/>
</svg>
