<svg width="160" height="160" viewBox="0 0 160 160" fill="none" xmlns="http://www.w3.org/2000/svg">
<path d="M80.0001 3.05176e-05L85.9784 40.5603L103.647 3.5642L97.4041 44.0846L125.192 13.94L107.284 50.8202L142.722 30.2054L114.739 60.1684L154.679 50.9152L119.107 71.2988L160 74.2291L120 83.2219L158.213 98.0759L117.34 94.8794L149.476 120.337L111.361 105.234L134.566 139.033L102.596 113.367L114.808 152.504L91.8234 118.555L91.9572 159.553L80.0001 120.337L68.0431 159.553L68.1768 118.555L45.1921 152.504L57.4042 113.367L25.4337 139.033L48.6391 105.234L10.5237 120.337L42.6607 94.8794L1.78705 98.0759L40 83.2219L0 74.2291L40.8936 71.2988L5.32126 50.9152L45.2619 60.1684L17.2782 30.2054L52.7167 50.8202L34.8081 13.94L62.5962 44.0846L56.3535 3.5642L74.0219 40.5603L80.0001 3.05176e-05Z" fill="#C5C765"/>
</svg>
