<svg width="164" height="148" viewBox="0 0 164 148" fill="none" xmlns="http://www.w3.org/2000/svg">
<path d="M143.623 94.9259C144.153 94.3752 145.031 95.0392 144.645 95.6986L141.408 101.23C137.229 108.372 138.488 117.448 144.454 123.182L149.074 127.624C149.625 128.153 148.961 129.031 148.301 128.645L142.77 125.408C135.628 121.229 126.552 122.488 120.818 128.454L116.376 133.074C115.847 133.625 114.969 132.961 115.355 132.301L118.591 126.77C122.771 119.628 121.512 110.552 115.546 104.818L110.926 100.376C110.375 99.847 111.039 98.9691 111.698 99.3548L117.23 102.592C124.372 106.771 133.448 105.512 139.182 99.546L143.623 94.9259Z" fill="#EB5160"/>
<path d="M48.6657 1.18531C48.8534 -0.395103 51.1466 -0.395103 51.3343 1.18531L52.9075 14.4435C54.9388 31.5634 68.4366 45.0612 85.5563 47.0925L98.8146 48.6657C100.395 48.8534 100.395 51.1466 98.8146 51.3343L85.5563 52.9075C68.4366 54.9388 54.9388 68.4366 52.9075 85.5563L51.3343 98.8146C51.1466 100.395 48.8534 100.395 48.6657 98.8146L47.0925 85.5563C45.0612 68.4366 31.5634 54.9388 14.4435 52.9075L1.18531 51.3343C-0.395103 51.1466 -0.395103 48.8534 1.18531 48.6657L14.4435 47.0925C31.5634 45.0612 45.0612 31.5634 47.0925 14.4435L48.6657 1.18531Z" fill="#EB5160"/>
</svg>
