<svg width="260" height="148" viewBox="0 0 260 148" fill="none" xmlns="http://www.w3.org/2000/svg">
<path d="M4.75614 38.6178C4.75614 35.9885 2.62668 33.8567 0 33.8567V0C21.3056 0 38.5773 17.2898 38.5773 38.6178V108.976C38.5773 111.605 40.7066 113.737 43.3333 113.737C45.9601 113.737 48.0894 111.605 48.0894 108.976V38.6178C48.0894 17.2898 65.3611 0 86.667 0C107.972 0 125.244 17.2898 125.244 38.6178V108.976C125.244 111.605 127.374 113.737 130 113.737C132.626 113.737 134.756 111.605 134.756 108.976V38.6178C134.756 17.2898 152.028 0 173.333 0C194.639 0 211.911 17.2898 211.911 38.6178V108.976C211.911 111.605 214.04 113.737 216.667 113.737C219.293 113.737 221.423 111.605 221.423 108.976V38.6178C221.423 17.2898 238.695 0 260 0V33.8567C257.374 33.8567 255.244 35.9885 255.244 38.6178V108.976C255.244 130.304 237.972 147.594 216.667 147.594C195.361 147.594 178.089 130.304 178.089 108.976V38.6178C178.089 35.9885 175.96 33.8567 173.333 33.8567C170.707 33.8567 168.577 35.9885 168.577 38.6178V108.976C168.577 130.304 151.305 147.594 130 147.594C108.695 147.594 91.4232 130.304 91.4232 108.976V38.6178C91.4232 35.9885 89.2934 33.8567 86.667 33.8567C84.0396 33.8567 81.9108 35.9885 81.9108 38.6178V108.976C81.9108 130.304 64.6389 147.594 43.3333 147.594C22.0277 147.594 4.75614 130.304 4.75614 108.976V38.6178Z" fill="#0083FF"/>
</svg>
